<?xml version="1.0" encoding="utf-8"?>
<!-- Generator: Adobe Illustrator 24.0.2, SVG Export Plug-In . SVG Version: 6.00 Build 0)  -->
<svg version="1.1" xmlns="http://www.w3.org/2000/svg" xmlns:xlink="http://www.w3.org/1999/xlink" x="0px" y="0px"
	 viewBox="0 0 1000 1000" style="enable-background:new 0 0 1000 1000;" xml:space="preserve">
<style type="text/css">
	.st0{display:none;}
	.st1{display:inline;fill:#FFFFFF;}
	.st2{fill:url(#SVGID_1_);}
	.st3{fill:#FFFFFF;}
	.st4{font-family:'ArialMT';}
	.st5{font-size:36px;}
	.st6{letter-spacing:4;}
</style>
<g id="background" class="st0">
	<path class="st1" d="M520,202.25c36.55,0,72.01,7.16,105.39,21.28c32.24,13.64,61.2,33.16,86.06,58.02
		c24.87,24.87,44.39,53.82,58.02,86.06c14.12,33.38,21.28,68.84,21.28,105.39s-7.16,72.01-21.28,105.39
		c-13.64,32.24-33.16,61.2-58.02,86.06c-24.87,24.87-53.82,44.39-86.06,58.02c-33.38,14.12-68.84,21.28-105.39,21.28
		s-72.01-7.16-105.39-21.28c-32.24-13.64-61.2-33.16-86.06-58.02c-24.87-24.87-44.39-53.82-58.02-86.06
		c-14.12-33.38-21.28-68.84-21.28-105.39s7.16-72.01,21.28-105.39c13.64-32.24,33.16-61.2,58.02-86.06
		c24.87-24.87,53.82-44.39,86.06-58.02C447.99,209.41,483.45,202.25,520,202.25 M520,202c-149.67,0-271,121.33-271,271
		s121.33,271,271,271s271-121.33,271-271S669.67,202,520,202L520,202z"/>
</g>
<g id="circle">
	
		<linearGradient id="SVGID_1_" gradientUnits="userSpaceOnUse" x1="249.12" y1="527" x2="790.88" y2="527" gradientTransform="matrix(1 0 0 -1 0 1000)">
		<stop  offset="0.1025" style="stop-color:#FFFFFF"/>
		<stop  offset="1" style="stop-color:#000000"/>
	</linearGradient>
	<path class="st2" d="M520,743.88c-72.35,0-140.38-28.18-191.54-79.34C277.3,613.38,249.12,545.35,249.12,473
		s28.18-140.38,79.34-191.54S447.65,202.12,520,202.12s140.38,28.18,191.54,79.34S790.88,400.64,790.88,473
		c0,72.35-28.18,140.38-79.34,191.54C660.38,715.7,592.35,743.88,520,743.88z"/>
</g>
<g id="logo">
	<g>
		<g>
			<g>
				<path d="M333.53,388.24c0.89,1.64,2.57,3.28,2.56,4.91c-0.12,14.34-1.26,28.71-0.57,43c0.37,7.69,2.64,15.76,6.03,22.71
					c4.45,9.1,14.25,10.8,23.45,11.18c14.23,0.58,28.49,0.22,42.74,0.33c3.14,0.03,6.27,0.39,9.4,0.6
					c0.23-3.86,0.63-7.72,0.65-11.57c0.07-20.53,0.19-41.05-0.06-61.58c-0.08-6.2,1.88-8.74,8.49-8.67
					c25.48,0.27,50.98-0.43,76.44,0.32c14.7,0.44,29.81,0.79,43.45,7.44c13.3,6.49,24.61,14.02,30.5,29.54
					c7.53,19.84-5.56,47.53-25.17,54.99c-15.5,5.9-31.07,8.62-47.53,8.55c-49.47-0.21-98.95,0.42-148.41-0.32
					c-20.32-0.3-39.76-5.95-53.23-22.42c-4.67-5.7-8.3-13.7-8.86-20.91c-1.17-15.17,0.02-30.51,0.19-45.79
					c0.02-1.89,0.19-3.99-0.54-5.62c-1.71-3.83,0.55-5.3,3.35-6.7C308.78,388.24,321.15,388.24,333.53,388.24z M533.85,440.67
					c0-18.76-3.11-25.53-19.58-28.45c-15.54-2.76-31.83-1.54-47.79-1.66c-1.1-0.01-3.17,3.44-3.2,5.3
					c-0.26,16.11,0,32.23-0.24,48.34c-0.08,5.12,2.29,6.13,6.75,6.06c11.31-0.17,22.63-0.16,33.94-0.03
					C521.88,470.45,535.77,462.43,533.85,440.67z"/>
				<path d="M691.22,489.92c-12.37,0-24.77,0.52-37.11-0.15c-11.71-0.64-23.92-0.79-34.9-4.25c-18.02-5.69-34.77-18.57-37.5-40.64
					c-1.58-12.73,6.01-31.76,18.94-40.29c16.71-11.02,35.05-13.61,53.87-14.72c14.03-0.83,28.18,0.65,42.28,0.73
					c11.09,0.06,22.2-0.1,33.26-0.84c8.05-0.53,9.39,0.17,9.39,8.28c0,0.24,0,0.49,0,0.73c-0.05,9.82-0.05,9.83-9.98,9.83
					c-19.18,0.01-38.37-0.5-57.52,0.22c-10.9,0.41-22.1,1.62-32.48,4.71c-9.39,2.8-15.05,10.48-14.76,21.11
					c0.08,2.91-0.22,5.84-0.12,8.75c0.72,20.65,10.97,26.64,29.52,27.21c25.93,0.79,51.88,0.72,77.82,1.13
					c7.25,0.11,7.36,0.91,7.65,10.79c0.17,5.7-1.58,7.69-7.52,7.52C718.45,489.66,704.83,489.92,691.22,489.92z"/>
			</g>
		</g>
		<polygon points="293.61,389.83 293.63,389.83 293.63,398.39 296.84,398.39 296.84,388.24 293.61,388.24 		"/>
		<rect x="333.4" y="388.24" width="2.68" height="5.65"/>
		<rect x="662.61" y="389.62" width="70.73" height="3.38"/>
	</g>
	<polygon class="st3" points="293.61,389.83 292.45,389.83 292.45,398.39 293.61,398.39 293.63,398.39 293.63,389.83 	"/>
</g>
<g id="text">
	<text transform="matrix(1 0 0 1 293.3662 543.5596)" class="st4 st5">Decorating</text>
	<text transform="matrix(1 0 0 1 473.4362 543.5596)" class="st4 st5 st6"> </text>
	<text transform="matrix(1 0 0 1 486.7762 543.5596)" class="st4 st5">Contractors</text>
	<text transform="matrix(1 0 0 1 676.1262 543.5596)" class="st4 st5 st6"> </text>
	<text transform="matrix(1 0 0 1 689.4662 543.5596)" class="st4 st5">Ltd</text>
</g>
</svg>
